<mxfile host="app.diagrams.net" agent="Mozilla/5.0 (Macintosh; Intel Mac OS X 10_15_7) AppleWebKit/537.36 (KHTML, like Gecko) Chrome/131.0.0.0 Safari/537.36" version="24.8.6">
  <diagram name="Page-1" id="wVMwYLyxr4PYHoP_r0zS">
    <mxGraphModel dx="2993" dy="2649" grid="1" gridSize="10" guides="1" tooltips="1" connect="1" arrows="1" fold="1" page="1" pageScale="1" pageWidth="850" pageHeight="1100" math="0" shadow="0">
      <root>
        <mxCell id="0" />
        <mxCell id="1" parent="0" />
        <mxCell id="title" value="[TMRW.IT] Distributed Cloud Platform" style="text;html=1;fontSize=20;fontStyle=1;" parent="1" vertex="1">
          <mxGeometry x="50" y="20" width="400" height="30" as="geometry" />
        </mxCell>
        <mxCell id="MIaoaSeqQotOdPiKlqNz-20" value="" style="ellipse;shape=cloud;whiteSpace=wrap;html=1;" vertex="1" parent="1">
          <mxGeometry x="780" y="487" width="759" height="506" as="geometry" />
        </mxCell>
        <mxCell id="MIaoaSeqQotOdPiKlqNz-65" value="" style="edgeStyle=orthogonalEdgeStyle;rounded=0;orthogonalLoop=1;jettySize=auto;html=1;" edge="1" parent="1" source="MIaoaSeqQotOdPiKlqNz-22" target="MIaoaSeqQotOdPiKlqNz-64">
          <mxGeometry relative="1" as="geometry" />
        </mxCell>
        <mxCell id="MIaoaSeqQotOdPiKlqNz-22" value="GitHub" style="swimlane;whiteSpace=wrap;html=1;" vertex="1" parent="1">
          <mxGeometry x="600" y="-120" width="200" height="200" as="geometry">
            <mxRectangle x="790" y="90" width="140" height="30" as="alternateBounds" />
          </mxGeometry>
        </mxCell>
        <mxCell id="MIaoaSeqQotOdPiKlqNz-23" value="" style="shape=image;html=1;verticalLabelPosition=bottom;verticalAlign=top;imageAspect=0;image=img/clipart/Gear_128x128.png" vertex="1" parent="1">
          <mxGeometry x="800" y="530" width="50" height="60" as="geometry" />
        </mxCell>
        <mxCell id="MIaoaSeqQotOdPiKlqNz-24" value="" style="verticalLabelPosition=bottom;verticalAlign=top;html=1;shape=mxgraph.basic.layered_rect;dx=10;outlineConnect=0;whiteSpace=wrap;" vertex="1" parent="1">
          <mxGeometry x="710" y="880" width="100" height="60" as="geometry" />
        </mxCell>
        <mxCell id="MIaoaSeqQotOdPiKlqNz-25" value="" style="html=1;shape=mxgraph.basic.isocube;isoAngle=15;" vertex="1" parent="1">
          <mxGeometry x="670" y="550" width="100" height="100" as="geometry" />
        </mxCell>
        <mxCell id="MIaoaSeqQotOdPiKlqNz-27" value="" style="verticalLabelPosition=bottom;verticalAlign=top;html=1;shape=mxgraph.basic.layered_rect;dx=10;outlineConnect=0;whiteSpace=wrap;" vertex="1" parent="1">
          <mxGeometry x="810" y="933" width="100" height="60" as="geometry" />
        </mxCell>
        <mxCell id="MIaoaSeqQotOdPiKlqNz-28" value="" style="strokeWidth=2;html=1;shape=mxgraph.flowchart.database;whiteSpace=wrap;" vertex="1" parent="1">
          <mxGeometry x="600" y="710" width="60" height="60" as="geometry" />
        </mxCell>
        <mxCell id="MIaoaSeqQotOdPiKlqNz-29" value="" style="verticalLabelPosition=bottom;verticalAlign=top;html=1;shape=process;whiteSpace=wrap;rounded=1;size=0.14;arcSize=6;" vertex="1" parent="1">
          <mxGeometry x="720" y="690" width="100" height="60" as="geometry" />
        </mxCell>
        <mxCell id="MIaoaSeqQotOdPiKlqNz-32" value="" style="shape=ellipse;html=1;dashed=0;whiteSpace=wrap;perimeter=ellipsePerimeter;" vertex="1" parent="1">
          <mxGeometry x="920" y="160" width="30" height="30" as="geometry" />
        </mxCell>
        <mxCell id="MIaoaSeqQotOdPiKlqNz-35" value="" style="image;sketch=0;aspect=fixed;html=1;points=[];align=center;fontSize=12;image=img/lib/mscae/Load_Balancer_feature.svg;" vertex="1" parent="1">
          <mxGeometry x="790" y="470" width="50" height="50" as="geometry" />
        </mxCell>
        <mxCell id="MIaoaSeqQotOdPiKlqNz-36" value="" style="image;sketch=0;aspect=fixed;html=1;points=[];align=center;fontSize=12;image=img/lib/mscae/Network_watcher.svg;" vertex="1" parent="1">
          <mxGeometry x="860" y="480" width="50" height="50" as="geometry" />
        </mxCell>
        <mxCell id="MIaoaSeqQotOdPiKlqNz-37" value="" style="image;sketch=0;aspect=fixed;html=1;points=[];align=center;fontSize=12;image=img/lib/mscae/Virtual_Network.svg;" vertex="1" parent="1">
          <mxGeometry x="780" y="586" width="50" height="28.000000000000004" as="geometry" />
        </mxCell>
        <mxCell id="MIaoaSeqQotOdPiKlqNz-62" value="" style="group" vertex="1" connectable="0" parent="1">
          <mxGeometry x="1173" y="696" width="102.28999999999996" height="68" as="geometry" />
        </mxCell>
        <mxCell id="MIaoaSeqQotOdPiKlqNz-58" value="" style="sketch=0;pointerEvents=1;shadow=0;dashed=0;html=1;strokeColor=none;fillColor=#4D4D4D;labelPosition=center;verticalLabelPosition=bottom;verticalAlign=top;align=center;outlineConnect=0;shape=mxgraph.veeam2.laptop;" vertex="1" parent="MIaoaSeqQotOdPiKlqNz-62">
          <mxGeometry width="82.29" height="48" as="geometry" />
        </mxCell>
        <mxCell id="MIaoaSeqQotOdPiKlqNz-59" value="" style="sketch=0;pointerEvents=1;shadow=0;dashed=0;html=1;strokeColor=none;fillColor=#4D4D4D;labelPosition=center;verticalLabelPosition=bottom;verticalAlign=top;align=center;outlineConnect=0;shape=mxgraph.veeam2.laptop;" vertex="1" parent="MIaoaSeqQotOdPiKlqNz-62">
          <mxGeometry x="10" y="10" width="82.29" height="48" as="geometry" />
        </mxCell>
        <mxCell id="MIaoaSeqQotOdPiKlqNz-60" value="cndt.io&lt;br&gt;software" style="sketch=0;pointerEvents=1;shadow=0;dashed=0;html=1;strokeColor=none;fillColor=#4D4D4D;labelPosition=center;verticalLabelPosition=bottom;verticalAlign=top;align=center;outlineConnect=0;shape=mxgraph.veeam2.laptop;" vertex="1" parent="MIaoaSeqQotOdPiKlqNz-62">
          <mxGeometry x="20" y="20" width="82.29" height="48" as="geometry" />
        </mxCell>
        <mxCell id="MIaoaSeqQotOdPiKlqNz-63" value="" style="group" vertex="1" connectable="0" parent="1">
          <mxGeometry x="990" y="670" width="120" height="120" as="geometry" />
        </mxCell>
        <mxCell id="MIaoaSeqQotOdPiKlqNz-33" value="Server" style="html=1;dashed=0;whiteSpace=wrap;shape=mxgraph.dfd.externalEntity" vertex="1" parent="MIaoaSeqQotOdPiKlqNz-63">
          <mxGeometry width="100" height="100" as="geometry" />
        </mxCell>
        <mxCell id="MIaoaSeqQotOdPiKlqNz-34" value="cndt.io" style="autosize=1;part=1;resizable=0;strokeColor=inherit;fillColor=inherit;gradientColor=inherit;" vertex="1" parent="MIaoaSeqQotOdPiKlqNz-33">
          <mxGeometry width="60" height="30" relative="1" as="geometry">
            <mxPoint x="-5" y="10" as="offset" />
          </mxGeometry>
        </mxCell>
        <mxCell id="MIaoaSeqQotOdPiKlqNz-41" value="Server" style="html=1;dashed=0;whiteSpace=wrap;shape=mxgraph.dfd.externalEntity" vertex="1" parent="MIaoaSeqQotOdPiKlqNz-63">
          <mxGeometry x="10" y="10" width="100" height="100" as="geometry" />
        </mxCell>
        <mxCell id="MIaoaSeqQotOdPiKlqNz-42" value="cndt.io" style="autosize=1;part=1;resizable=0;strokeColor=inherit;fillColor=inherit;gradientColor=inherit;" vertex="1" parent="MIaoaSeqQotOdPiKlqNz-41">
          <mxGeometry width="60" height="30" relative="1" as="geometry">
            <mxPoint x="-5" y="10" as="offset" />
          </mxGeometry>
        </mxCell>
        <mxCell id="MIaoaSeqQotOdPiKlqNz-43" value="Server" style="html=1;dashed=0;whiteSpace=wrap;shape=mxgraph.dfd.externalEntity" vertex="1" parent="MIaoaSeqQotOdPiKlqNz-63">
          <mxGeometry x="20" y="20" width="100" height="100" as="geometry" />
        </mxCell>
        <mxCell id="MIaoaSeqQotOdPiKlqNz-44" value="cndt.io" style="autosize=1;part=1;resizable=0;strokeColor=inherit;fillColor=inherit;gradientColor=inherit;" vertex="1" parent="MIaoaSeqQotOdPiKlqNz-43">
          <mxGeometry width="60" height="30" relative="1" as="geometry">
            <mxPoint x="-5" y="10" as="offset" />
          </mxGeometry>
        </mxCell>
        <mxCell id="MIaoaSeqQotOdPiKlqNz-68" value="" style="edgeStyle=orthogonalEdgeStyle;rounded=0;orthogonalLoop=1;jettySize=auto;html=1;" edge="1" parent="1" source="MIaoaSeqQotOdPiKlqNz-64" target="MIaoaSeqQotOdPiKlqNz-67">
          <mxGeometry relative="1" as="geometry" />
        </mxCell>
        <mxCell id="MIaoaSeqQotOdPiKlqNz-64" value="Terraform" style="swimlane;whiteSpace=wrap;html=1;" vertex="1" parent="1">
          <mxGeometry x="880" y="-120" width="200" height="200" as="geometry">
            <mxRectangle x="790" y="90" width="140" height="30" as="alternateBounds" />
          </mxGeometry>
        </mxCell>
        <mxCell id="MIaoaSeqQotOdPiKlqNz-70" value="" style="edgeStyle=orthogonalEdgeStyle;rounded=0;orthogonalLoop=1;jettySize=auto;html=1;" edge="1" parent="1" source="MIaoaSeqQotOdPiKlqNz-67" target="MIaoaSeqQotOdPiKlqNz-69">
          <mxGeometry relative="1" as="geometry" />
        </mxCell>
        <mxCell id="MIaoaSeqQotOdPiKlqNz-67" value="Rancher" style="swimlane;whiteSpace=wrap;html=1;" vertex="1" parent="1">
          <mxGeometry x="1160" y="-120" width="200" height="200" as="geometry">
            <mxRectangle x="790" y="90" width="140" height="30" as="alternateBounds" />
          </mxGeometry>
        </mxCell>
        <mxCell id="MIaoaSeqQotOdPiKlqNz-72" value="" style="edgeStyle=orthogonalEdgeStyle;rounded=0;orthogonalLoop=1;jettySize=auto;html=1;" edge="1" parent="1" source="MIaoaSeqQotOdPiKlqNz-69" target="MIaoaSeqQotOdPiKlqNz-71">
          <mxGeometry relative="1" as="geometry" />
        </mxCell>
        <mxCell id="MIaoaSeqQotOdPiKlqNz-69" value="Kubernetes Cluster" style="swimlane;whiteSpace=wrap;html=1;" vertex="1" parent="1">
          <mxGeometry x="1440" y="-120" width="200" height="200" as="geometry">
            <mxRectangle x="790" y="90" width="140" height="30" as="alternateBounds" />
          </mxGeometry>
        </mxCell>
        <mxCell id="MIaoaSeqQotOdPiKlqNz-74" value="" style="edgeStyle=orthogonalEdgeStyle;rounded=0;orthogonalLoop=1;jettySize=auto;html=1;" edge="1" parent="1" source="MIaoaSeqQotOdPiKlqNz-71" target="MIaoaSeqQotOdPiKlqNz-73">
          <mxGeometry relative="1" as="geometry" />
        </mxCell>
        <mxCell id="MIaoaSeqQotOdPiKlqNz-71" value="Kubernetes Control Plane" style="swimlane;whiteSpace=wrap;html=1;" vertex="1" parent="1">
          <mxGeometry x="1720" y="-120" width="200" height="200" as="geometry">
            <mxRectangle x="790" y="90" width="140" height="30" as="alternateBounds" />
          </mxGeometry>
        </mxCell>
        <mxCell id="MIaoaSeqQotOdPiKlqNz-76" value="" style="edgeStyle=orthogonalEdgeStyle;rounded=0;orthogonalLoop=1;jettySize=auto;html=1;" edge="1" parent="1" source="MIaoaSeqQotOdPiKlqNz-73" target="MIaoaSeqQotOdPiKlqNz-75">
          <mxGeometry relative="1" as="geometry" />
        </mxCell>
        <mxCell id="MIaoaSeqQotOdPiKlqNz-78" value="" style="edgeStyle=orthogonalEdgeStyle;rounded=0;orthogonalLoop=1;jettySize=auto;html=1;" edge="1" parent="1" source="MIaoaSeqQotOdPiKlqNz-73" target="MIaoaSeqQotOdPiKlqNz-77">
          <mxGeometry relative="1" as="geometry" />
        </mxCell>
        <mxCell id="MIaoaSeqQotOdPiKlqNz-73" value="Central Nodes" style="swimlane;whiteSpace=wrap;html=1;" vertex="1" parent="1">
          <mxGeometry x="2000" y="-120" width="200" height="200" as="geometry">
            <mxRectangle x="790" y="90" width="140" height="30" as="alternateBounds" />
          </mxGeometry>
        </mxCell>
        <mxCell id="MIaoaSeqQotOdPiKlqNz-80" value="" style="edgeStyle=orthogonalEdgeStyle;rounded=0;orthogonalLoop=1;jettySize=auto;html=1;" edge="1" parent="1" source="MIaoaSeqQotOdPiKlqNz-75" target="MIaoaSeqQotOdPiKlqNz-79">
          <mxGeometry relative="1" as="geometry" />
        </mxCell>
        <mxCell id="MIaoaSeqQotOdPiKlqNz-75" value="Edge Nodes" style="swimlane;whiteSpace=wrap;html=1;" vertex="1" parent="1">
          <mxGeometry x="2280" y="-120" width="200" height="200" as="geometry">
            <mxRectangle x="790" y="90" width="140" height="30" as="alternateBounds" />
          </mxGeometry>
        </mxCell>
        <mxCell id="MIaoaSeqQotOdPiKlqNz-77" value="Longhorn" style="swimlane;whiteSpace=wrap;html=1;" vertex="1" parent="1">
          <mxGeometry x="2000" y="-400" width="200" height="200" as="geometry">
            <mxRectangle x="790" y="90" width="140" height="30" as="alternateBounds" />
          </mxGeometry>
        </mxCell>
        <mxCell id="MIaoaSeqQotOdPiKlqNz-79" value="Calico" style="swimlane;whiteSpace=wrap;html=1;" vertex="1" parent="1">
          <mxGeometry x="2280" y="-400" width="200" height="200" as="geometry">
            <mxRectangle x="790" y="90" width="140" height="30" as="alternateBounds" />
          </mxGeometry>
        </mxCell>
      </root>
    </mxGraphModel>
  </diagram>
</mxfile>
